<?xml version="1.0" standalone="no"?>
<!DOCTYPE svg PUBLIC "-//W3C//DTD SVG 20010904//EN"
 "http://www.w3.org/TR/2001/REC-SVG-20010904/DTD/svg10.dtd">
<svg version="1.0" xmlns="http://www.w3.org/2000/svg"
 width="700.000000pt" height="700.000000pt" viewBox="0 0 700.000000 700.000000"
 preserveAspectRatio="xMidYMid meet">
<metadata>
Created by potrace 1.11, written by Peter Selinger 2001-2013
</metadata>
<g transform="translate(0.000000,700.000000) scale(0.100000,-0.100000)"
fill="#000000" stroke="none">
<path d="M3203 6538 c-22 -62 -58 -162 -78 -223 -21 -60 -41 -114 -45 -118 -5
-5 -124 -10 -266 -12 -143 -2 -272 -4 -289 -5 -29 -1 -28 -2 20 -27 28 -14 52
-30 53 -34 2 -5 9 -9 15 -9 19 0 198 -138 270 -208 55 -52 113 -117 180 -202
37 -46 120 -188 159 -270 58 -122 91 -224 133 -405 6 -25 -10 -13 -102 80
-138 139 -166 164 -288 256 -246 185 -438 279 -675 333 -113 26 -170 31 -345
30 -148 -1 -182 -5 -267 -27 -161 -43 -272 -107 -380 -222 -207 -218 -121
-547 197 -749 142 -91 330 -159 552 -201 107 -20 130 -23 193 -30 30 -3 71 -8
90 -10 69 -9 272 -23 460 -31 154 -6 1319 -7 1425 0 39 2 129 7 200 11 129 7
168 10 255 20 25 3 68 7 95 10 28 3 61 8 75 10 14 3 41 7 60 10 66 10 145 27
196 41 28 8 60 16 70 19 11 2 57 18 103 35 247 91 432 252 501 436 39 106 44
188 17 289 -69 261 -326 416 -688 416 -341 -1 -668 -110 -979 -330 -137 -97
-270 -212 -382 -331 -57 -61 -105 -110 -108 -110 -3 0 -5 53 -5 118 -1 103
-12 289 -20 332 -1 8 -6 38 -9 65 -4 28 -11 73 -16 100 -5 28 -12 64 -15 80
-11 66 -16 92 -27 130 -5 22 -11 47 -13 55 -29 147 -148 492 -243 703 l-39 88
-40 -113z m1937 -1074 c241 -56 318 -255 171 -439 -94 -115 -281 -203 -556
-259 -112 -23 -161 -31 -260 -41 -22 -2 -62 -7 -90 -9 -167 -17 -208 -20 -500
-31 -93 -4 -173 -9 -177 -12 -18 -10 -6 19 30 70 159 234 437 483 668 599 65
33 196 85 234 93 8 2 47 10 85 19 89 19 108 21 232 23 58 1 128 -5 163 -13z
m-2889 -28 c192 -23 370 -98 545 -229 100 -75 267 -231 339 -317 74 -88 155
-202 150 -211 -4 -5 -9 -7 -13 -5 -7 4 -95 10 -287 21 -55 3 -120 8 -145 10
-25 2 -79 7 -120 10 -41 4 -82 8 -90 10 -8 2 -49 7 -90 10 -41 4 -77 9 -80 10
-3 2 -26 6 -50 10 -426 61 -701 223 -726 428 -8 63 10 109 58 152 100 91 289
128 509 101z"/>
<path d="M954 4216 c-17 -8 -35 -22 -39 -32 -5 -11 -10 -166 -11 -346 -2 -374
0 -382 68 -395 22 -4 486 -8 1031 -7 l992 1 0 394 0 394 -1005 2 c-826 2
-1011 0 -1036 -11z"/>
<path d="M3229 4213 c-4 -92 -1 -765 4 -770 5 -5 419 -8 525 -4 l22 1 0 395 0
395 -275 0 c-255 0 -275 -1 -276 -17z"/>
<path d="M4009 4222 c-1 -4 -2 -184 -3 -399 l-1 -393 1017 0 1017 0 28 24 28
24 0 347 0 347 -33 29 -32 29 -1010 0 c-556 0 -1011 -4 -1011 -8z"/>
<path d="M1283 3142 l-23 -3 0 -1354 c0 -971 3 -1361 11 -1378 24 -52 0 -51
894 -51 550 -1 835 2 836 9 0 6 2 632 2 1393 1 915 -1 1382 -8 1383 -31 3
-1694 3 -1712 1z"/>
<path d="M3237 3138 c-11 -7 -16 -2756 -5 -2774 5 -7 416 -11 531 -5 16 1 17
74 17 1391 0 1317 -1 1390 -17 1391 -97 4 -517 2 -526 -3z"/>
<path d="M4017 3140 c-10 -4 -13 -290 -12 -1395 l0 -1389 843 0 843 0 27 27
27 27 1 1365 1 1365 -21 1 c-80 4 -1699 3 -1709 -1z"/>
</g>
</svg>
